<?xml version="1.0" encoding="UTF-8" standalone="no"?>
<!DOCTYPE svg PUBLIC "-//W3C//DTD SVG 1.1//EN" "http://www.w3.org/Graphics/SVG/1.1/DTD/svg11.dtd">
<svg width="100%" height="100%" viewBox="0 0 534 534" version="1.1" xmlns="http://www.w3.org/2000/svg" xmlns:xlink="http://www.w3.org/1999/xlink" xml:space="preserve" xmlns:serif="http://www.serif.com/" style="fill-rule:evenodd;clip-rule:evenodd;stroke-linecap:round;stroke-linejoin:round;stroke-miterlimit:1.5;">
    <g transform="matrix(1,0,0,1,-149.177,-51.3771)">
        <g id="Artboard1" transform="matrix(1,0,0,1,-919.067,-12.2187)">
            <rect x="919.067" y="12.219" width="748.416" height="613.589" style="fill:none;"/>
            <g transform="matrix(1,0,0,1,919.067,12.2187)">
                <rect x="149.177" y="51.377" width="533.447" height="533.447" style="fill:url(#_Linear1);"/>
            </g>
            <g transform="matrix(0.941927,-0.00065305,0.00065305,0.941927,820.177,71.1818)">
                <path d="M546.231,88.182L755.266,447.648L337.195,447.648L546.231,88.182ZM546.231,297.725L619.77,424.186L472.692,424.186L546.231,297.725ZM443.56,424.186L379.047,424.186L546.231,136.689L713.415,424.186L648.902,424.186L546.231,247.629L443.56,424.186Z" style="fill:white;stroke:white;stroke-width:5.84px;"/>
            </g>
        </g>
    </g>
    <defs>
        <linearGradient id="_Linear1" x1="0" y1="0" x2="1" y2="0" gradientUnits="userSpaceOnUse" gradientTransform="matrix(533.447,0,0,533.447,149.177,318.101)"><stop offset="0" style="stop-color:rgb(255,113,0);stop-opacity:1"/><stop offset="1" style="stop-color:rgb(255,77,0);stop-opacity:1"/></linearGradient>
    </defs>
</svg>
