<?xml version="1.0" encoding="UTF-8" standalone="no"?>
<!DOCTYPE svg PUBLIC "-//W3C//DTD SVG 1.1//EN" "http://www.w3.org/Graphics/SVG/1.1/DTD/svg11.dtd">
<svg width="100%" height="100%" viewBox="0 0 363 439" version="1.1" xmlns="http://www.w3.org/2000/svg" xmlns:xlink="http://www.w3.org/1999/xlink" xml:space="preserve" xmlns:serif="http://www.serif.com/" style="fill-rule:evenodd;clip-rule:evenodd;stroke-linecap:round;stroke-linejoin:round;">
    <g transform="matrix(1,0,0,1,-171.755,-1664.14)">
        <g transform="matrix(1,0,0,1,-919.067,1565.39)">
            <g id="path26" transform="matrix(6.56375,0,0,6.56375,986.481,-252.92)">
                <path d="M55,111.31C37.75,117.369 25.766,101.801 26.481,85.571C27.234,68.449 45.441,67.474 52.233,65.17C64.585,60.98 46.164,63.499 43.656,62.698C44.731,60.475 56.106,51.172 47.625,55.243C34.29,61.643 16.566,71.881 16.566,86.129C15.832,111.994 33.362,119.74 45.717,119.74C81.915,119.74 72.896,74.8 53.938,74.656C38.467,74.656 24.556,95.515 47.25,105.5C40.23,95.206 39.249,83.125 52.312,83.125C65.375,83.125 72.388,102.644 55,111.31Z" style="fill:rgb(255,86,0);fill-rule:nonzero;stroke:rgb(255,86,0);stroke-width:1.29px;"/>
            </g>
        </g>
    </g>
</svg>
